<?xml version="1.0" encoding="UTF-8" standalone="no"?>
<!-- Generator: Adobe Illustrator 17.1.0, SVG Export Plug-In . SVG Version: 6.00 Build 0)  -->

<svg
   xmlns:dc="http://purl.org/dc/elements/1.1/"
   xmlns:cc="http://creativecommons.org/ns#"
   xmlns:rdf="http://www.w3.org/1999/02/22-rdf-syntax-ns#"
   xmlns:svg="http://www.w3.org/2000/svg"
   xmlns="http://www.w3.org/2000/svg"
   xmlns:xlink="http://www.w3.org/1999/xlink"
   xmlns:sodipodi="http://sodipodi.sourceforge.net/DTD/sodipodi-0.dtd"
   xmlns:inkscape="http://www.inkscape.org/namespaces/inkscape"
   version="1.1"
   id="Layer_1"
   x="0px"
   y="0px"
   viewBox="0 0 1064.7 1284.4"
   enable-background="new 0 0 1064.7 1284.4"
   xml:space="preserve"
   inkscape:version="0.91 r13725"
   sodipodi:docname="Vector Smart Object.svg"><metadata
     id="metadata21"><rdf:RDF><cc:Work
         rdf:about=""><dc:format>image/svg+xml</dc:format><dc:type
           rdf:resource="http://purl.org/dc/dcmitype/StillImage" /><dc:title></dc:title></cc:Work></rdf:RDF></metadata><defs
     id="defs19" /><sodipodi:namedview
     pagecolor="#ffffff"
     bordercolor="#666666"
     borderopacity="1"
     objecttolerance="10"
     gridtolerance="10"
     guidetolerance="10"
     inkscape:pageopacity="0"
     inkscape:pageshadow="2"
     inkscape:window-width="1920"
     inkscape:window-height="1017"
     id="namedview17"
     showgrid="false"
     inkscape:zoom="0.18374338"
     inkscape:cx="-226.86106"
     inkscape:cy="642.20001"
     inkscape:window-x="-8"
     inkscape:window-y="-8"
     inkscape:window-maximized="1"
     inkscape:current-layer="Layer_1" /><g
     id="g3"><defs
       id="defs5"><rect
         id="SVGID_1_"
         width="1064.7"
         height="1284.4" /></defs><clipPath
       id="SVGID_2_"><use
         xlink:href="#SVGID_1_"
         overflow="visible"
         id="use9" /></clipPath><path
       clip-path="url(#SVGID_2_)"
       fill-rule="evenodd"
       clip-rule="evenodd"
       fill="#2D2F31"
       d="M1064.7,0H596.8v809.6   c-5.6,103.4-29.7,188.2-62.1,264.7c128.5-47.5,240.8-123.9,257.8-281.7c5.7-53.2,6.8-692.3,6.8-692.3h165.1   c0,111.6,0,649.3,0,649.3c0,0,0,0,0,0C948,897.3,834.3,988.8,740.1,1060c-64.2,48.5-135.6,91.5-210.1,119.4   c-139.1-70.8-285.4-151.2-372.4-281.7c-27.4-41.2-51.3-94.4-57.3-152.8V100.3h367.6V0H0v744.8c53.8,301.1,309.3,406.3,531,539.5   c221.7-133.2,479.9-238.4,533.7-539.5C1064.7,710.6,1064.7,0,1064.7,0L1064.7,0z"
       id="path11" /><path
       clip-path="url(#SVGID_2_)"
       fill-rule="evenodd"
       clip-rule="evenodd"
       fill="#176CA8"
       d="M596.8,0v809.6   c-5.6,103.4-29.7,188.2-62.1,264.7c128.5-47.5,240.8-123.9,257.8-281.7c5.7-53.2,6.8-692.3,6.8-692.3L1064.7,0H596.8z"
       id="path13" /><polygon
       clip-path="url(#SVGID_2_)"
       fill-rule="evenodd"
       clip-rule="evenodd"
       fill="#30A6DE"
       points="596.8,0 799.4,100.3    1064.7,0  "
       id="polygon15" /></g></svg>