<svg id="SvgjsSvg1000" xmlns="http://www.w3.org/2000/svg" version="1.1" xmlns:xlink="http://www.w3.org/1999/xlink" xmlns:svgjs="http://svgjs.com/svgjs" width="206" height="38"><defs id="SvgjsDefs1001"></defs><path id="SvgjsPath1007" d="M597 2771C597 2781.49 605.507 2790 616 2790C626.493 2790 635 2781.49 635 2771C635 2760.51 626.493 2752 616 2752C605.507 2752 597 2760.51 597 2771ZM765 2771C765 2781.49 773.507 2790 784 2790C794.493 2790 803 2781.49 803 2771C803 2760.51 794.493 2752 784 2752C773.507 2752 765 2760.51 765 2771ZM681 2771C681 2781.49 689.507 2790 700 2790C710.493 2790 719 2781.49 719 2771C719 2760.51 710.493 2752 700 2752C689.507 2752 681 2760.51 681 2771ZM723 2771C723 2781.49 731.507 2790 742 2790C752.493 2790 761 2781.49 761 2771C761 2760.51 752.493 2752 742 2752C731.507 2752 723 2760.51 723 2771ZM639 2771C639 2781.49 647.507 2790 658 2790C668.493 2790 677 2781.49 677 2771C677 2760.51 668.493 2752 658 2752C647.507 2752 639 2760.51 639 2771ZM667.653 2765.02C667.123 2765.81 666.453 2766.5099999999998 665.679 2767.06C665.687 2767.23 665.6909999999999 2767.4 665.6909999999999 2767.58C665.6909999999999 2772.7999999999997 661.7119999999999 2778.83 654.4369999999999 2778.83C652.204 2778.83 650.1239999999999 2778.17 648.3749999999999 2777.0499999999997C648.6839999999999 2777.0899999999997 648.9979999999999 2777.1099999999997 649.3179999999999 2777.1099999999997C651.1719999999999 2777.1099999999997 652.8769999999998 2776.47 654.2299999999999 2775.41C652.4999999999999 2775.3799999999997 651.0389999999999 2774.24 650.5349999999999 2772.67C650.7769999999998 2772.71 651.0249999999999 2772.7400000000002 651.2799999999999 2772.7400000000002C651.6399999999999 2772.7400000000002 651.9899999999999 2772.69 652.3209999999999 2772.6000000000004C650.5129999999999 2772.2400000000002 649.1489999999999 2770.6400000000003 649.1489999999999 2768.7200000000003C649.1489999999999 2768.7000000000003 649.1489999999999 2768.69 649.1489999999999 2768.67C649.6829999999999 2768.9700000000003 650.2919999999999 2769.15 650.9409999999999 2769.17C649.8779999999999 2768.46 649.1819999999999 2767.25 649.1819999999999 2765.87C649.1819999999999 2765.15 649.3759999999999 2764.47 649.7169999999999 2763.89C651.6679999999999 2766.2799999999997 654.5819999999999 2767.85 657.8689999999999 2768.02C657.8009999999999 2767.73 657.766 2767.43 657.766 2767.12C657.766 2764.93 659.5369999999999 2763.16 661.722 2763.16C662.8589999999999 2763.16 663.887 2763.64 664.608 2764.41C665.5079999999999 2764.23 666.356 2763.8999999999996 667.1199999999999 2763.45C666.8249999999999 2764.37 666.1969999999999 2765.1499999999996 665.3799999999999 2765.64C666.1809999999999 2765.54 666.9429999999999 2765.33 667.6529999999999 2765.02ZM624.612 2772.16L621.805 2772.16L621.805 2782.54L617.1179999999999 2782.54L617.1179999999999 2772.16L615.299 2772.16L615.299 2768.66L617.1179999999999 2768.66L617.1179999999999 2766.43C617.1179999999999 2763.5 618.3309999999999 2761.77 621.776 2761.77L625.2669999999999 2761.77L625.2669999999999 2765.2599999999998L623.2399999999999 2765.2599999999998C621.8989999999999 2765.2599999999998 621.8109999999999 2765.7599999999998 621.8109999999999 2766.6899999999996L621.805 2768.6599999999994L624.9939999999999 2768.6599999999994ZM753.574 2781.25L748.871 2781.25L748.871 2773.66C748.871 2771.83 748.386 2770.58 746.746 2770.58C745.496 2770.58 744.818 2771.43 744.49 2772.24C744.371 2772.5299999999997 744.341 2772.9399999999996 744.341 2773.3399999999997L744.341 2781.2499999999995L739.616 2781.2499999999995L739.5889999999999 2767.2899999999995L744.314 2767.2899999999995L744.341 2769.2599999999993C744.942 2768.3299999999995 745.949 2767.0099999999993 748.356 2767.0099999999993C751.338 2767.0099999999993 753.574 2768.9499999999994 753.574 2773.1399999999994ZM698.097 2763.14C698.6229999999999 2763.65 699.728 2764.5099999999998 699.728 2766.23C699.728 2767.9 698.7639999999999 2768.7400000000002 697.8009999999999 2769.48C697.5039999999999 2769.77 697.156 2770.09 697.156 2770.59C697.156 2771.08 697.5039999999999 2771.36 697.757 2771.56L698.5799999999999 2772.19C699.588 2773.03 700.502 2773.8 700.502 2775.35C700.502 2777.48 698.4159999999999 2779.62 694.476 2779.62C691.153 2779.62 689.551 2778.06 689.551 2776.39C689.551 2775.58 689.964 2774.43 691.3190000000001 2773.64C692.7360000000001 2772.7799999999997 694.6600000000001 2772.66 695.6940000000001 2772.5899999999997C695.3710000000001 2772.1899999999996 695.0050000000001 2771.7599999999998 695.0050000000001 2771.0599999999995C695.0050000000001 2770.6799999999994 695.1200000000001 2770.4499999999994 695.2370000000001 2770.1799999999994C694.9830000000001 2770.1999999999994 694.7300000000001 2770.2199999999993 694.5010000000001 2770.2199999999993C692.0730000000001 2770.2199999999993 690.6940000000001 2768.439999999999 690.6940000000001 2766.669999999999C690.6940000000001 2765.629999999999 691.177 2764.479999999999 692.167 2763.649999999999C693.4680000000001 2762.579999999999 695.0300000000001 2762.389999999999 696.265 2762.389999999999L700.985 2762.389999999999L699.517 2763.139999999999ZM708.989 2772.79L708.989 2776.22L706.654 2776.22L706.654 2772.79L703.2139999999999 2772.79L703.2139999999999 2770.44L706.654 2770.44L706.654 2766.9900000000002L708.989 2766.9900000000002L708.989 2770.44L712.445 2770.44L712.445 2772.79ZM737.416 2781.25L732.7560000000001 2781.25L732.729 2767.29L737.389 2767.29ZM693.538 2773.59C693.032 2773.77 691.569 2774.32 691.569 2775.92C691.569 2777.52 693.149 2778.6800000000003 695.5999999999999 2778.6800000000003C697.8009999999999 2778.6800000000003 698.9669999999999 2777.63 698.9669999999999 2776.2300000000005C698.9669999999999 2775.0800000000004 698.2129999999999 2774.4700000000003 696.4729999999998 2773.2500000000005C696.2899999999998 2773.2300000000005 696.1749999999998 2773.2300000000005 695.9439999999998 2773.2300000000005C695.7379999999998 2773.2300000000005 694.5009999999999 2773.2700000000004 693.5379999999999 2773.5900000000006ZM694.821 2763.15C694.226 2763.15 693.585 2763.4500000000003 693.216 2763.9C692.827 2764.37 692.7090000000001 2764.98 692.7090000000001 2765.57C692.7090000000001 2767.0800000000004 693.609 2769.59 695.5770000000001 2769.59C696.1530000000001 2769.59 696.7690000000001 2769.32 697.1380000000001 2768.96C697.6610000000002 2768.44 697.7070000000001 2767.7200000000003 697.7070000000001 2767.31C697.7070000000001 2765.68 696.7220000000001 2763.15 694.8210000000001 2763.15ZM734.969 2765.47L734.94 2765.47C733.418 2765.47 732.4350000000001 2764.4199999999996 732.4350000000001 2763.1099999999997C732.4350000000001 2761.7699999999995 733.4490000000001 2760.7499999999995 734.998 2760.7499999999995C736.5490000000001 2760.7499999999995 737.503 2761.7699999999995 737.532 2763.1099999999997C737.532 2764.4199999999996 736.5490000000001 2765.47 734.969 2765.47ZM667.653 2765.02C668.182 2764.22 667.653 2765.02 667.653 2765.02ZM790.561 2774.14C790.561 2774.95 790.408 2775.66 790.1020000000001 2776.2799999999997C789.796 2776.89 789.3850000000001 2777.39 788.868 2777.7999999999997C788.2560000000001 2778.2699999999995 787.5820000000001 2778.62 786.846 2778.8199999999997C786.115 2779.0199999999995 785.188 2779.1299999999997 784.056 2779.1299999999997L777.455 2779.1299999999997L777.455 2762.8499999999995L783.293 2762.8499999999995C784.487 2762.8499999999995 785.391 2762.8899999999994 786.008 2762.9899999999993C786.625 2763.0699999999993 787.2030000000001 2763.2699999999995 787.74 2763.5599999999995C788.322 2763.8699999999994 788.76 2764.2899999999995 789.045 2764.8099999999995C789.3309999999999 2765.3399999999997 789.4799999999999 2765.9399999999996 789.4799999999999 2766.6299999999997C789.4799999999999 2767.43 789.2799999999999 2768.1299999999997 788.882 2768.7499999999995C788.4849999999999 2769.3699999999994 787.939 2769.8299999999995 787.2389999999999 2770.1199999999994L787.2389999999999 2770.2099999999996C788.2449999999999 2770.4199999999996 789.0489999999999 2770.8499999999995 789.6539999999999 2771.4999999999995C790.2579999999999 2772.1599999999994 790.5609999999999 2773.0399999999995 790.5609999999999 2774.1399999999994ZM786.349 2774.07C786.349 2773.56 786.2510000000001 2773.17 786.0450000000001 2772.8900000000003C785.8410000000001 2772.6000000000004 785.5340000000001 2772.3900000000003 785.1250000000001 2772.2400000000002C784.8800000000001 2772.1400000000003 784.5370000000001 2772.09 784.1050000000001 2772.0800000000004C783.6720000000001 2772.07 783.0890000000002 2772.0600000000004 782.3640000000001 2772.0600000000004L781.6080000000002 2772.0600000000004L781.6080000000002 2776.1400000000003L781.8290000000002 2776.1400000000003C782.8920000000002 2776.1400000000003 783.6270000000002 2776.13 784.0340000000002 2776.1200000000003C784.4400000000002 2776.1000000000004 784.8600000000002 2776.01 785.2810000000002 2775.82C785.6520000000002 2775.6600000000003 785.9220000000001 2775.4300000000003 786.0950000000001 2775.1200000000003C786.2650000000001 2774.8100000000004 786.3490000000002 2774.4600000000005 786.3490000000002 2774.07ZM785.123 2766.64C784.99 2766.37 784.782 2766.16 784.4920000000001 2766.04C784.2220000000001 2765.92 783.9090000000001 2765.86 783.5390000000001 2765.85C783.1680000000001 2765.8399999999997 782.618 2765.83 781.892 2765.83L781.6080000000001 2765.83L781.6080000000001 2769.2799999999997L782.124 2769.2799999999997C782.82 2769.2799999999997 783.311 2769.2699999999995 783.592 2769.2599999999998C783.872 2769.24 784.165 2769.1699999999996 784.4639999999999 2769.0299999999997C784.7879999999999 2768.8799999999997 785.016 2768.66 785.1379999999999 2768.39C785.2629999999999 2768.12 785.3259999999999 2767.81 785.3259999999999 2767.45C785.3259999999999 2767.1899999999996 785.2589999999999 2766.9199999999996 785.1229999999999 2766.64Z " fill="#243e57" transform="matrix(1,0,0,1,-597,-2752)"></path></svg>