<svg id="SvgjsSvg1000" xmlns="http://www.w3.org/2000/svg" version="1.1" xmlns:xlink="http://www.w3.org/1999/xlink" xmlns:svgjs="http://svgjs.com/svgjs" width="12" height="29"><defs id="SvgjsDefs1001"></defs><path id="SvgjsPath1007" d="M482.53245 22.70512L482.358 22.6708L484.04 16.2989L484.17397 16.352999999999998L484.18399999999997 16.3142L483.34599999999995 15.996699999999999L477.71299999999997 18.0595C477.71299999999997 18.0595 471.813 29.1598 477.388 42.737899999999996L482.99899999999997 44.996199999999995L483.84999999999997 44.6951L483.83471999999995 44.629709999999996L483.68699999999995 44.6701L481.87799999999993 37.9625L481.9059899999999 37.96021L480.18999999999994 37.870099999999994L480.12999999999994 23.529999999999994L482.4579999999999 22.993199999999995ZM483.83472 44.62971L482.281 37.9799L481.90599000000003 37.960210000000004L485.10100000000006 37.6985L486.55000000000007 43.8873ZM484.17397 16.353L482.53244 22.70512L485.24199 23.2382L486.99199 17.4909Z " fill="#6bb6ee" transform="matrix(1,0,0,1,-475,-16)"></path></svg>