<?xml version="1.0" encoding="UTF-8" standalone="no"?>
<!-- Generator: Adobe Illustrator 16.0.0, SVG Export Plug-In . SVG Version: 6.00 Build 0) -->
<!DOCTYPE svg  PUBLIC '-//W3C//DTD SVG 1.1//EN'  'http://www.w3.org/Graphics/SVG/1.1/DTD/svg11.dtd'>
<svg id="Layer_1" style="enable-background:new 4.581 3.818 503.377 504.14" xmlns="http://www.w3.org/2000/svg" xml:space="preserve" height="504.14px" viewBox="4.581 3.818 503.377 504.14" width="503.38px" version="1.1" y="0px" x="0px" xmlns:xlink="http://www.w3.org/1999/xlink"><g transform="translate(0 950) scale(0.1 -0.1)"><path d="m800.34 9455.8c-97.549-10.777-207.5-45.811-303.96-95.934-226.9-119.65-395.59-352.47-440.32-609.01-9.707-54.434-10.244-127.73-10.244-1821.6v-1765.1l12.402-54.971c77.607-350.86 325.52-598.78 676.38-676.38l54.971-12.402h3546.2l54.971 12.402c350.85 77.598 598.77 325.52 676.38 676.38l12.393 54.971v1765c0 1693.9-0.537 1767.2-10.234 1821.6-13.477 78.687-40.42 157.91-81.387 239.83-127.72 257.08-384.27 434.93-672.06 466.19-65.8 7.1-3452 6.5-3515.6-1zm1925.7-896.3c185.4-23.174 335.22-67.905 499.61-148.21 161.68-79.229 265.16-154.14 402.05-290.49 128.27-128.81 199.41-226.36 274.86-377.8 105.1-211.27 164.92-462.42 175.16-738.9 3.779-94.312 1.084-115.34-20.479-142.28-40.957-52.285-130.97-43.652-161.68 15.088-9.707 19.404-12.402 36.104-15.635 111.56-5.391 115.87-13.467 190.79-29.639 280.25-63.594 350.85-231.75 631.1-500.15 832.13-223.66 168.15-454.87 250.07-757.75 267.86-102.4 5.928-120.19 9.697-143.36 27.485-43.125 33.955-45.273 113.72-3.779 150.9 25.332 23.179 43.115 26.411 130.97 23.716 45.8-1.7 113.1-7.1 149.8-11.4zm-1232-58.2c18.867-6.465 47.969-21.553 64.678-32.334 102.39-67.91 387.5-432.77 480.74-614.94 53.35-104.01 71.133-181.08 54.434-238.21-17.256-61.44-45.811-93.779-173.54-196.72-51.201-41.494-99.17-84.072-106.71-95.391-19.404-28.027-35.039-82.998-35.039-121.8 0.547-90.005 58.75-253.31 135.28-378.88 59.277-97.549 165.45-222.58 270.55-318.52 123.42-113.18 232.28-190.24 355.17-251.15 157.91-78.682 254.38-98.623 324.99-65.752 17.783 8.086 36.641 18.867 42.578 23.711 5.381 4.854 46.885 55.518 92.158 111.56 87.305 109.95 107.25 127.73 167.07 148.21 75.996 25.869 153.6 18.867 231.75-21.016 59.287-30.723 188.63-111.02 272.17-169.23 109.94-77.07 344.92-268.94 376.73-307.21 56.045-68.984 65.752-157.36 28.018-254.92-39.883-102.93-195.1-295.88-303.43-378.34-98.086-74.375-167.61-102.93-259.23-107.25-75.449-3.77-106.71 2.695-203.18 42.578-756.68 312.05-1360.8 777.7-1840.5 1417.4-250.6 334.15-441.4 680.69-571.83 1040.2-75.986 209.65-79.756 300.73-17.246 407.98 26.953 45.269 141.75 157.37 225.28 219.89 139.05 103.48 203.18 141.75 254.38 152.52 34.9 7.5 95.8 1.5 134.6-12.5zm1269.2-332.5c327.15-47.963 580.45-199.95 746.44-446.79 93.242-139.05 151.44-302.35 171.39-477.5 7.002-64.136 7.002-181.09-0.537-200.49-7.012-18.32-29.648-43.115-49.053-53.35-21.016-10.781-65.742-9.707-90.537 3.232-41.504 21.016-53.896 54.434-53.896 144.98 0 139.58-36.113 286.72-98.623 400.98-71.143 130.42-174.62 238.21-300.73 313.13-108.33 64.673-268.4 112.64-414.45 124.49-52.822 4.316-81.924 15.093-101.86 38.267-30.713 35.034-33.955 82.461-8.086 121.8 28.1 43.7 71.2 50.7 200 31.3zm114.8-406.9c106.17-22.637 187.56-63.057 257.08-128.27 89.463-84.609 138.52-187.01 160.07-334.15 14.551-95.933 8.623-133.66-25.332-164.92-31.796-29.102-90.536-30.181-126.11-2.695-25.869 19.404-33.955 39.883-39.883 95.391-7.002 73.838-19.941 125.58-42.031 173.54-47.432 101.86-130.97 154.68-272.17 171.92-66.299 8.086-86.24 15.63-107.79 40.957-39.346 46.89-24.258 122.88 30.176 150.91 20.488 10.239 29.111 11.318 74.375 8.623 27.9-1.5 69.4-6.4 91.5-11.2z" fill="#7b519d"/></g></svg>
