<?xml version="1.0" encoding="utf-8"?>
<!-- Generator: Avocode 2.6.0 - http://avocode.com -->
<svg height="20" width="20" xmlns:xlink="http://www.w3.org/1999/xlink" xmlns="http://www.w3.org/2000/svg" viewBox="0 0 20 20">
    <path fill="#35363c" fill-rule="evenodd" d="M 13.43 12.18 L 20 18.75 L 18.75 20 L 12.18 13.43 C 10.9 14.44 9.28 15.05 7.52 15.05 C 3.37 15.05 0 11.68 0 7.52 C 0 3.37 3.37 0 7.52 0 C 11.68 0 15.05 3.37 15.05 7.52 C 15.05 9.28 14.44 10.9 13.43 12.18 L 13.43 12.18 L 13.43 12.18 Z M 7.52 13.28 C 10.7 13.28 13.28 10.7 13.28 7.52 C 13.28 4.35 10.7 1.77 7.52 1.77 C 4.35 1.77 1.77 4.35 1.77 7.52 C 1.77 10.7 4.35 13.28 7.52 13.28 L 7.52 13.28 Z M 7.52 13.28" />
</svg>