<?xml version="1.0" encoding="UTF-8" standalone="no"?>
<!-- Creator: CorelDRAW X6 -->

<svg
   xmlns:dc="http://purl.org/dc/elements/1.1/"
   xmlns:cc="http://creativecommons.org/ns#"
   xmlns:rdf="http://www.w3.org/1999/02/22-rdf-syntax-ns#"
   xmlns:svg="http://www.w3.org/2000/svg"
   xmlns="http://www.w3.org/2000/svg"
   xmlns:xlink="http://www.w3.org/1999/xlink"
   xmlns:sodipodi="http://sodipodi.sourceforge.net/DTD/sodipodi-0.dtd"
   xmlns:inkscape="http://www.inkscape.org/namespaces/inkscape"
   xml:space="preserve"
   width="28.3889in"
   height="11.8056in"
   version="1.1"
   style="shape-rendering:geometricPrecision; text-rendering:geometricPrecision; image-rendering:optimizeQuality; fill-rule:evenodd; clip-rule:evenodd"
   viewBox="0 0 28389 11806"
   id="svg2"
   inkscape:version="0.91 r13725"
   sodipodi:docname="Shape 1.svg"><metadata
     id="metadata66"><rdf:RDF><cc:Work
         rdf:about=""><dc:format>image/svg+xml</dc:format><dc:type
           rdf:resource="http://purl.org/dc/dcmitype/StillImage" /></cc:Work></rdf:RDF></metadata><sodipodi:namedview
     pagecolor="#ffffff"
     bordercolor="#666666"
     borderopacity="1"
     objecttolerance="10"
     gridtolerance="10"
     guidetolerance="10"
     inkscape:pageopacity="0"
     inkscape:pageshadow="2"
     inkscape:window-width="1920"
     inkscape:window-height="1017"
     id="namedview64"
     showgrid="false"
     inkscape:zoom="0.17601555"
     inkscape:cx="-90.452795"
     inkscape:cy="401.53746"
     inkscape:window-x="-8"
     inkscape:window-y="-8"
     inkscape:window-maximized="1"
     inkscape:current-layer="svg2" /><defs
     id="defs4"><style
       type="text/css"
       id="style6"><![CDATA[
    .fil0 {fill:#559dd6;stroke:#559dd6;stroke-width:2px;}
   ]]></style><clipPath
       id="SVGID_2_"><use
         height="100%"
         width="100%"
         y="0"
         x="0"
         style="overflow:visible"
         xlink:href="#SVGID_1_"
         overflow="visible"
         id="use9" /></clipPath><clipPath
       id="clipPath4209"><use
         height="100%"
         width="100%"
         y="0"
         x="0"
         style="overflow:visible"
         xlink:href="#SVGID_1_"
         overflow="visible"
         id="use4211" /></clipPath><clipPath
       id="clipPath4213"><use
         height="100%"
         width="100%"
         y="0"
         x="0"
         style="overflow:visible"
         xlink:href="#SVGID_1_"
         overflow="visible"
         id="use4215" /></clipPath></defs><g
     id="Layer_x0020_1"
     style="fill:#559dd6;fill-opacity:1"><metadata
       id="CorelCorpID_0Corel-Layer" /><g
       id="_159947424"
       style="fill:#559dd6;fill-opacity:1"><polygon
         class="fil0"
         points="16982,1443 16972,1433 7333,11070 7342,11080 "
         id="polygon11"
         style="fill:#559dd6;fill-opacity:1" /></g><g
       id="_159947640"
       style="fill:#559dd6;fill-opacity:1"><polygon
         class="fil0"
         points="20303,1774 20290,1769 17165,10809 17178,10814 "
         id="polygon14"
         style="fill:#559dd6;fill-opacity:1" /></g><g
       id="_159948480"
       style="fill:#559dd6;fill-opacity:1"><polygon
         class="fil0"
         points="21803,1353 21790,1358 25415,10883 25428,10878 "
         id="polygon17"
         style="fill:#559dd6;fill-opacity:1" /></g><g
       id="_159948216"
       style="fill:#559dd6;fill-opacity:1"><polygon
         class="fil0"
         points="27106,1500 27099,1488 11431,10805 11439,10817 "
         id="polygon20"
         style="fill:#559dd6;fill-opacity:1" /></g><g
       id="_159948408"
       style="fill:#559dd6;fill-opacity:1"><polygon
         class="fil0"
         points="2898,1614 2888,1624 12305,11038 12315,11029 "
         id="polygon23"
         style="fill:#559dd6;fill-opacity:1" /></g><g
       id="_159948624"
       style="fill:#559dd6;fill-opacity:1"><polygon
         class="fil0"
         points="7897,1572 7889,1583 21056,10678 21064,10667 "
         id="polygon26"
         style="fill:#559dd6;fill-opacity:1" /></g><g
       id="_159948240"
       style="fill:#559dd6;fill-opacity:1"><polygon
         class="fil0"
         points="23371,725 23361,735 28375,5762 28385,5752 "
         id="polygon29"
         style="fill:#559dd6;fill-opacity:1" /></g><g
       id="_159948120"
       style="fill:#559dd6;fill-opacity:1"><polygon
         class="fil0"
         points="6622,1760 6609,1755 2720,10948 2733,10953 "
         id="polygon32"
         style="fill:#559dd6;fill-opacity:1" /></g><g
       id="_159948288"
       style="fill:#559dd6;fill-opacity:1"><polygon
         class="fil0"
         points="5514,10803 5522,10792 8,7334 0,7346 "
         id="polygon35"
         style="fill:#559dd6;fill-opacity:1" /></g><g
       id="_159949440"
       style="fill:#559dd6;fill-opacity:1"><polygon
         class="fil0"
         points="12098,11799 12110,11806 18925,7 18913,0 "
         id="polygon38"
         style="fill:#559dd6;fill-opacity:1" /></g><g
       id="_159948912"
       style="fill:#559dd6;fill-opacity:1"><polygon
         class="fil0"
         points="8090,10384 8103,10388 11227,1352 11214,1348 "
         id="polygon41"
         style="fill:#559dd6;fill-opacity:1" /></g><g
       id="_159949272"
       style="fill:#559dd6;fill-opacity:1"><polygon
         class="fil0"
         points="6590,10805 6603,10800 2978,1278 2965,1283 "
         id="polygon44"
         style="fill:#559dd6;fill-opacity:1" /></g><g
       id="_159948864"
       style="fill:#559dd6;fill-opacity:1"><polygon
         class="fil0"
         points="1288,10658 1295,10670 16960,1356 16952,1344 "
         id="polygon47"
         style="fill:#559dd6;fill-opacity:1" /></g><g
       id="_159948936"
       style="fill:#559dd6;fill-opacity:1"><polygon
         class="fil0"
         points="25492,10544 25501,10534 16086,1123 16076,1133 "
         id="polygon50"
         style="fill:#559dd6;fill-opacity:1" /></g><g
       id="_159949392"
       style="fill:#559dd6;fill-opacity:1"><polygon
         class="fil0"
         points="17045,11335 17054,11325 5063,735 5054,745 "
         id="polygon53"
         style="fill:#559dd6;fill-opacity:1" /></g><g
       id="_159949608"
       style="fill:#559dd6;fill-opacity:1"><polygon
         class="fil0"
         points="5022,11432 5032,11422 19,6398 9,6407 "
         id="polygon56"
         style="fill:#559dd6;fill-opacity:1" /></g><g
       id="_159949872"
       style="fill:#559dd6;fill-opacity:1"><polygon
         class="fil0"
         points="21768,10397 21781,10403 25670,1214 25657,1209 "
         id="polygon59"
         style="fill:#559dd6;fill-opacity:1" /></g><g
       id="_159949944"
       style="fill:#559dd6;fill-opacity:1"><polygon
         class="fil0"
         points="22876,1358 22868,1370 28381,4826 28389,4814 "
         id="polygon62"
         style="fill:#559dd6;fill-opacity:1" /></g></g><g
     id="g3"
     transform="matrix(14.253947,0,0,14.253947,12580.836,-10527.318)"><defs
       id="defs5"><rect
         y="0"
         x="0"
         id="SVGID_1_"
         width="1064.7"
         height="1284.4" /></defs><clipPath
       id="clipPath4220"><use
         height="100%"
         width="100%"
         y="0"
         x="0"
         style="overflow:visible"
         xlink:href="#SVGID_1_"
         overflow="visible"
         id="use4222" /></clipPath><path
       clip-path="url(#SVGID_2_)"
       d="m 1064.7,0 -467.9,0 0,809.6 c -5.6,103.4 -29.7,188.2 -62.1,264.7 128.5,-47.5 240.8,-123.9 257.8,-281.7 5.7,-53.2 6.8,-692.3 6.8,-692.3 l 165.1,0 c 0,111.6 0,649.3 0,649.3 0,0 0,0 0,0 C 948,897.3 834.3,988.8 740.1,1060 675.9,1108.5 604.5,1151.5 530,1179.4 390.9,1108.6 244.6,1028.2 157.6,897.7 130.2,856.5 106.3,803.3 100.3,744.9 l 0,-644.6 367.6,0 L 467.9,0 0,0 0,744.8 c 53.8,301.1 309.3,406.3 531,539.5 221.7,-133.2 479.9,-238.4 533.7,-539.5 0,-34.2 0,-744.8 0,-744.8 l 0,0 z"
       id="path11"
       inkscape:connector-curvature="0"
       style="clip-rule:evenodd;fill:#6eb9f6;fill-rule:evenodd" /><path
       clip-path="url(#SVGID_2_)"
       d="m 596.8,0 0,809.6 c -5.6,103.4 -29.7,188.2 -62.1,264.7 128.5,-47.5 240.8,-123.9 257.8,-281.7 5.7,-53.2 6.8,-692.3 6.8,-692.3 L 1064.7,0 596.8,0 Z"
       id="path13"
       inkscape:connector-curvature="0"
       style="clip-rule:evenodd;fill:#6eb9f6;fill-rule:evenodd" /><polygon
       clip-path="url(#SVGID_2_)"
       points="596.8,0 799.4,100.3 1064.7,0 "
       id="polygon15"
       style="clip-rule:evenodd;fill:#6eb9f6;fill-rule:evenodd" /></g></svg>