<?xml version="1.0" standalone="no"?>
<!DOCTYPE svg PUBLIC "-//W3C//DTD SVG 20010904//EN"
 "http://www.w3.org/TR/2001/REC-SVG-20010904/DTD/svg10.dtd">
<svg version="1.0" xmlns="http://www.w3.org/2000/svg"
 width="1284.000000pt" height="1284.000000pt" viewBox="0 0 1284.000000 1284.000000"
 preserveAspectRatio="xMidYMid meet">
<metadata>
Created by potrace 1.11, written by Peter Selinger 2001-2013
</metadata>
<g transform="translate(0.000000,1284.000000) scale(0.100000,-0.100000)"
fill="#000000" stroke="none">
<path d="M1100 9113 c1 -2051 5 -3746 9 -3768 5 -22 18 -85 30 -140 35 -172
97 -401 156 -580 29 -88 92 -264 105 -290 5 -11 27 -64 50 -118 70 -168 224
-475 290 -577 5 -8 21 -35 36 -60 43 -71 225 -342 240 -358 8 -7 18 -22 24
-31 15 -28 221 -284 302 -375 393 -440 817 -803 1463 -1254 61 -42 407 -267
513 -333 103 -64 376 -231 407 -249 17 -9 123 -72 238 -139 114 -67 224 -131
245 -142 65 -37 307 -177 343 -198 19 -11 43 -25 54 -31 11 -5 41 -22 67 -37
51 -30 385 -224 446 -259 21 -12 95 -55 166 -97 71 -42 132 -75 135 -73 48 28
200 119 211 126 12 8 86 50 163 95 9 5 162 93 338 195 177 102 343 197 368
212 25 15 53 31 61 35 28 13 555 319 600 348 19 12 123 76 230 141 273 165
585 368 805 523 142 101 434 320 470 353 7 7 28 24 46 38 33 25 121 100 288
245 227 198 598 599 787 850 223 296 466 707 589 995 20 47 40 94 45 105 105
235 233 653 301 984 l29 144 0 3724 0 3723 -2340 0 -2340 0 -3 -4112 c-2
-2262 -6 -4135 -10 -4163 -3 -27 -9 -81 -12 -120 -4 -38 -13 -124 -21 -190
-29 -243 -32 -265 -49 -355 -8 -41 -17 -91 -20 -110 -28 -178 -88 -434 -179
-770 -26 -98 -202 -613 -226 -665 -14 -30 -100 -245 -100 -250 0 -19 478 185
715 305 743 377 1244 840 1545 1425 148 286 238 563 290 880 37 236 36 213 55
990 2 99 7 443 10 765 3 322 8 765 10 985 5 437 14 2031 20 3450 2 495 4 907
4 916 1 14 78 16 824 15 l822 -1 1 -3255 c0 -1790 -3 -3273 -7 -3295 -4 -22
-9 -58 -13 -80 -3 -22 -12 -76 -21 -120 -9 -44 -18 -89 -20 -100 -11 -67 -107
-375 -140 -450 -8 -16 -28 -64 -45 -105 -99 -239 -308 -577 -514 -835 -161
-202 -417 -469 -626 -655 -52 -47 -100 -89 -106 -95 -65 -59 -186 -161 -248
-210 -22 -16 -44 -35 -50 -40 -20 -20 -359 -281 -471 -363 -60 -45 -119 -88
-130 -97 -79 -60 -133 -98 -310 -216 -311 -208 -476 -309 -775 -471 -91 -49
-407 -208 -415 -208 -3 0 -49 -20 -102 -45 -52 -25 -97 -45 -100 -45 -3 0 -19
-6 -36 -14 -18 -8 -74 -30 -124 -50 l-93 -37 -157 82 c-365 189 -403 209 -558
294 -138 75 -163 89 -225 123 -103 55 -139 76 -235 132 -49 29 -106 62 -125
73 -19 11 -48 28 -65 38 -16 10 -47 29 -69 41 -52 31 -63 38 -126 77 -640 402
-1078 740 -1481 1141 -197 197 -271 278 -394 430 -42 52 -84 104 -93 115 -34
40 -209 292 -258 370 -162 258 -333 635 -398 875 -8 30 -21 78 -29 105 -8 28
-18 68 -23 90 -4 22 -8 45 -10 50 -4 16 -23 122 -37 210 -10 63 -13 752 -12
3310 l0 3230 1815 2 c998 1 1825 2 1838 2 l22 1 0 500 0 500 -2340 0 -2340 0
0 -3727z"/>
</g>
</svg>
